# xmcd CD database file
#
# Track frame offsets:
#	150
#	17091
#	35985
#	51427
#	71600
#	90553
#	107889
#	124432
#	139020
#	155743
#	177770
#	196198
#	212864
#	224901
#	243137
#	264938
#	276796
#	294124
#	320345
#	337231
#
# Disc length: 4708 seconds
#
# Revision: 2
# Processed by: cddbd v1.5.2PL0 Copyright (c) Steve Scherf et al.
# Submitted via: CDex 1.50Beta7
#
DISCID=3e126214
DTITLE=Western Union - Das Original
DYEAR=1994
DGENRE=Country
TTITLE0=Danke
TTITLE1=Dr. Countrymusic
TTITLE2=Auf der Autobahn
TTITLE3=Gott ich hoff der Tag wird gut
TTITLE4=Unter allen Männern bin ich der LKW
TTITLE5=Komm Baby tanz mit mir
TTITLE6=100%ig Countryfan
TTITLE7=Der liebe Gott der muss'n Cowboy sein
TTITLE8=Ich möcht so gerne mal nach Nashville
TTITLE9=Wir gehören doch zusammen
TTITLE10=Ich seh die grosse Welt nur durch die Windschutzscheibe
TTITLE11=Bärenstark
TTITLE12=An meinen Nächsten
TTITLE13=Was du mit mir machst Mädchen
TTITLE14=L.I.E.B.E.
TTITLE15=Ein Mann mit Bauch der tut's doch auch
TTITLE16=Mann sollte einen Drink nach dir benennen
TTITLE17=Transit Cowboy
TTITLE18=Bi-Ba-Baby
TTITLE19=Abschied
EXTD=YEAR: 1994
EXTT0=
EXTT1=
EXTT2=
EXTT3=
EXTT4=
EXTT5=
EXTT6=
EXTT7=
EXTT8=
EXTT9=
EXTT10=
EXTT11=
EXTT12=
EXTT13=
EXTT14=
EXTT15=
EXTT16=
EXTT17=
EXTT18=
EXTT19=
PLAYORDER=
